<?xml version="1.0" encoding="UTF-8"?>
<svg width="600" height="400" viewBox="0 0 600 400" xmlns="http://www.w3.org/2000/svg">
  <defs>
    <linearGradient id="nodeGradient1" x1="0%" y1="0%" x2="100%" y2="100%">
      <stop offset="0%" stop-color="#1e88e5" />
      <stop offset="100%" stop-color="#00bcd4" />
    </linearGradient>
    <linearGradient id="nodeGradient2" x1="0%" y1="0%" x2="100%" y2="100%">
      <stop offset="0%" stop-color="#00bcd4" />
      <stop offset="100%" stop-color="#7b1fa2" />
    </linearGradient>
    <filter id="glow" x="-50%" y="-50%" width="200%" height="200%">
      <feGaussianBlur stdDeviation="2.5" result="coloredBlur"/>
      <feMerge>
        <feMergeNode in="coloredBlur"/>
        <feMergeNode in="SourceGraphic"/>
      </feMerge>
    </filter>
  </defs>

  <!-- Background -->
  <rect width="600" height="400" fill="#f7fafd"/>

  <!-- Connections -->
  <g stroke-opacity="0.3" stroke-width="1.5">
    <!-- Central connections -->
    <line x1="300" y1="200" x2="150" y2="100" stroke="#1e88e5"/>
    <line x1="300" y1="200" x2="450" y2="100" stroke="#1e88e5"/>
    <line x1="300" y1="200" x2="150" y2="300" stroke="#1e88e5"/>
    <line x1="300" y1="200" x2="450" y2="300" stroke="#1e88e5"/>
    
    <!-- Secondary connections -->
    <line x1="150" y1="100" x2="75" y2="75" stroke="#00bcd4"/>
    <line x1="150" y1="100" x2="200" y2="50" stroke="#00bcd4"/>
    <line x1="450" y1="100" x2="400" y2="50" stroke="#00bcd4"/>
    <line x1="450" y1="100" x2="525" y2="75" stroke="#00bcd4"/>
    <line x1="150" y1="300" x2="75" y2="325" stroke="#00bcd4"/>
    <line x1="150" y1="300" x2="200" y2="350" stroke="#00bcd4"/>
    <line x1="450" y1="300" x2="400" y2="350" stroke="#00bcd4"/>
    <line x1="450" y1="300" x2="525" y2="325" stroke="#00bcd4"/>
    
    <!-- Mesh connections -->
    <line x1="150" y1="100" x2="450" y2="100" stroke="#7b1fa2" stroke-dasharray="4"/>
    <line x1="150" y1="300" x2="450" y2="300" stroke="#7b1fa2" stroke-dasharray="4"/>
    <line x1="150" y1="100" x2="150" y2="300" stroke="#7b1fa2" stroke-dasharray="4"/>
    <line x1="450" y1="100" x2="450" y2="300" stroke="#7b1fa2" stroke-dasharray="4"/>
    
    <!-- Tertiary connections -->
    <line x1="75" y1="75" x2="75" y2="325" stroke="#1e88e5" stroke-opacity="0.15"/>
    <line x1="525" y1="75" x2="525" y2="325" stroke="#1e88e5" stroke-opacity="0.15"/>
    <line x1="200" y1="50" x2="400" y2="50" stroke="#1e88e5" stroke-opacity="0.15"/>
    <line x1="200" y1="350" x2="400" y2="350" stroke="#1e88e5" stroke-opacity="0.15"/>
  </g>

  <!-- Nodes -->
  <g filter="url(#glow)">
    <!-- Central node -->
    <circle cx="300" cy="200" r="15" fill="url(#nodeGradient1)"/>
    
    <!-- Primary nodes -->
    <circle cx="150" cy="100" r="12" fill="url(#nodeGradient1)"/>
    <circle cx="450" cy="100" r="12" fill="url(#nodeGradient1)"/>
    <circle cx="150" cy="300" r="12" fill="url(#nodeGradient1)"/>
    <circle cx="450" cy="300" r="12" fill="url(#nodeGradient1)"/>
    
    <!-- Secondary nodes -->
    <circle cx="75" cy="75" r="8" fill="url(#nodeGradient2)"/>
    <circle cx="200" cy="50" r="8" fill="url(#nodeGradient2)"/>
    <circle cx="400" cy="50" r="8" fill="url(#nodeGradient2)"/>
    <circle cx="525" cy="75" r="8" fill="url(#nodeGradient2)"/>
    <circle cx="75" cy="325" r="8" fill="url(#nodeGradient2)"/>
    <circle cx="200" cy="350" r="8" fill="url(#nodeGradient2)"/>
    <circle cx="400" cy="350" r="8" fill="url(#nodeGradient2)"/>
    <circle cx="525" cy="325" r="8" fill="url(#nodeGradient2)"/>
  </g>

  <!-- Data packets -->
  <g>
    <circle cx="225" cy="150" r="4" fill="#00bcd4">
      <animate attributeName="cx" from="300" to="150" dur="4s" repeatCount="indefinite"/>
      <animate attributeName="cy" from="200" to="100" dur="4s" repeatCount="indefinite"/>
    </circle>
    <circle cx="375" cy="150" r="4" fill="#00bcd4">
      <animate attributeName="cx" from="300" to="450" dur="3s" repeatCount="indefinite"/>
      <animate attributeName="cy" from="200" to="100" dur="3s" repeatCount="indefinite"/>
    </circle>
    <circle cx="225" cy="250" r="4" fill="#7b1fa2">
      <animate attributeName="cx" from="300" to="150" dur="3.5s" repeatCount="indefinite"/>
      <animate attributeName="cy" from="200" to="300" dur="3.5s" repeatCount="indefinite"/>
    </circle>
    <circle cx="375" cy="250" r="4" fill="#7b1fa2">
      <animate attributeName="cx" from="300" to="450" dur="4.5s" repeatCount="indefinite"/>
      <animate attributeName="cy" from="200" to="300" dur="4.5s" repeatCount="indefinite"/>
    </circle>
  </g>
</svg>
